<?xml version="1.0" standalone="no"?>
<!DOCTYPE svg PUBLIC "-//W3C//DTD SVG 20010904//EN"
 "http://www.w3.org/TR/2001/REC-SVG-20010904/DTD/svg10.dtd">
<svg version="1.0" xmlns="http://www.w3.org/2000/svg"
 width="512.000000pt" height="512.000000pt" viewBox="0 0 512.000000 512.000000"
 preserveAspectRatio="xMidYMid meet">
<metadata>
Created by potrace 1.14, written by Peter Selinger 2001-2017
</metadata>
<g transform="translate(0.000000,512.000000) scale(0.100000,-0.100000)"
fill="#000000" stroke="none">
<path d="M2378 5055 c-2 -2 -41 -6 -87 -9 -47 -4 -87 -9 -91 -11 -3 -2 -26 -6
-50 -10 -121 -18 -340 -73 -415 -105 -11 -5 -54 -21 -95 -36 -107 -39 -298
-137 -415 -212 -173 -111 -285 -202 -430 -347 -124 -123 -288 -323 -325 -395
-7 -14 -16 -27 -19 -30 -9 -7 -101 -168 -101 -176 0 -4 -6 -15 -13 -23 -20
-24 -101 -211 -142 -330 -41 -120 -78 -263 -95 -371 -7 -41 -14 -84 -16 -95
-25 -135 -25 -624 1 -697 2 -7 6 -31 9 -53 21 -187 123 -502 233 -718 48 -95
159 -280 200 -332 28 -37 31 -40 68 -89 50 -67 96 -117 205 -227 347 -349 806
-593 1287 -684 167 -32 256 -39 463 -40 261 0 391 15 620 71 336 83 687 259
966 484 83 67 301 282 344 339 14 18 40 52 59 74 98 120 247 373 322 549 75
175 154 456 173 618 3 25 9 74 13 110 15 127 8 502 -11 595 -2 11 -9 54 -16
95 -51 317 -199 681 -395 967 -33 48 -65 95 -71 103 -134 173 -316 354 -494
490 -163 125 -439 276 -620 340 -19 6 -44 16 -55 20 -62 26 -267 82 -350 95
-22 4 -52 9 -66 11 -110 19 -270 31 -416 31 -95 0 -173 -1 -175 -2z"/>
</g>
</svg>
